<svg xmlns="http://www.w3.org/2000/svg" width="64" height="64" viewBox="0 0 64 64">
  <!-- Fondo con gradiente -->
  <defs>
    <linearGradient id="bgGradient" x1="0%" y1="0%" x2="100%" y2="100%">
      <stop offset="0%" style="stop-color:#3B82F6;stop-opacity:1" />
      <stop offset="100%" style="stop-color:#1D4ED8;stop-opacity:1" />
    </linearGradient>
    <linearGradient id="calendarGradient" x1="0%" y1="0%" x2="100%" y2="100%">
      <stop offset="0%" style="stop-color:#FFFFFF;stop-opacity:1" />
      <stop offset="100%" style="stop-color:#F1F5F9;stop-opacity:1" />
    </linearGradient>
  </defs>
  
  <!-- Fondo circular -->
  <circle cx="32" cy="32" r="30" fill="url(#bgGradient)" stroke="#1E40AF" stroke-width="2"/>
  
  <!-- Base del calendario -->
  <rect x="12" y="18" width="40" height="32" rx="4" ry="4" fill="url(#calendarGradient)" stroke="#CBD5E1" stroke-width="1"/>
  
  <!-- Anillas del calendario -->
  <rect x="20" y="12" width="3" height="8" rx="1.5" fill="#6B7280"/>
  <rect x="41" y="12" width="3" height="8" rx="1.5" fill="#6B7280"/>
  
  <!-- Línea superior del calendario -->
  <rect x="12" y="24" width="40" height="2" fill="#E5E7EB"/>
  
  <!-- Cuadrícula del calendario -->
  <g stroke="#E5E7EB" stroke-width="0.5" fill="none">
    <!-- Líneas verticales -->
    <line x1="18.7" y1="26" x2="18.7" y2="48"/>
    <line x1="25.4" y1="26" x2="25.4" y2="48"/>
    <line x1="32.1" y1="26" x2="32.1" y2="48"/>
    <line x1="38.8" y1="26" x2="38.8" y2="48"/>
    <line x1="45.5" y1="26" x2="45.5" y2="48"/>
    <!-- Líneas horizontales -->
    <line x1="12" y1="32" x2="52" y2="32"/>
    <line x1="12" y1="38" x2="52" y2="38"/>
    <line x1="12" y1="44" x2="52" y2="44"/>
  </g>
  
  <!-- Puntos representando tareas -->
  <circle cx="16" cy="29" r="1.5" fill="#10B981"/>
  <circle cx="22" cy="29" r="1.5" fill="#3B82F6"/>
  <circle cx="35" cy="35" r="1.5" fill="#F59E0B"/>
  <circle cx="42" cy="41" r="1.5" fill="#EF4444"/>
  <circle cx="28" cy="47" r="1.5" fill="#8B5CF6"/>
  
  <!-- Check mark destacado -->
  <g transform="translate(38,28)">
    <circle r="4" fill="#10B981"/>
    <path d="M-1.5,0 L-0.5,1 L1.5,-1" stroke="white" stroke-width="1.5" fill="none" stroke-linecap="round" stroke-linejoin="round"/>
  </g>
</svg>
